<?xml version="1.0" encoding="UTF-8" standalone="no"?>
<!DOCTYPE svg PUBLIC "-//W3C//DTD SVG 1.1//EN" "http://www.w3.org/Graphics/SVG/1.1/DTD/svg11.dtd">
<svg width="100%" height="100%" viewBox="0 0 1000 1000" version="1.1" xmlns="http://www.w3.org/2000/svg" xmlns:xlink="http://www.w3.org/1999/xlink" xml:space="preserve" xmlns:serif="http://www.serif.com/" style="fill-rule:evenodd;clip-rule:evenodd;stroke-linecap:round;stroke-linejoin:round;stroke-miterlimit:1.5;">
    <g>
        <path d="M680.349,763.728L840.543,1007.96L252.068,1012.48L184.043,866.273L280.519,731.24L320.903,729.683L633.449,724.539L680.349,763.728Z" style="fill:rgb(128,128,128);stroke:black;stroke-width:1px;"/>
        <path d="M-5.658,849.978C-11.318,836.128 167.599,771.248 192.374,763.779C195.309,762.894 279.644,683.346 302.616,678.18L640.703,680.603C640.703,680.603 693.907,700.904 707.276,708.802C714.032,712.794 713.436,725.609 720.913,727.992C804.312,754.572 948.859,817.734 916.832,824.376C896.943,828.502 1007.4,865.934 1008.67,897.842C1010.22,936.443 1011.89,1035.78 1011.89,1035.78L700.513,1043.39C700.513,1043.39 715.679,831.752 688.188,785.386C681.593,774.263 657.957,745.404 631.32,727.65C607.209,711.58 380.601,726.029 321.578,730.903C304.488,732.314 287.487,743.188 277.183,756.895C264.874,773.272 249.018,803.181 247.72,829.163C245.529,873.008 264.036,1019.97 264.036,1019.97L-34.381,1043.3L-5.658,849.978Z" style="fill:rgb(60,88,95);stroke:black;stroke-width:1px;"/>
        <path d="M615.751,1020.63L601.225,1023.87C601.437,1028.21 644.388,830.923 643.118,764.557C642.945,755.529 631.803,724.729 631.803,724.729C631.803,724.729 648.995,732.494 650.787,740.53C654.001,754.95 654.016,787.859 651.09,811.251C645.251,857.933 615.751,1020.63 615.751,1020.63Z" style="fill:rgb(34,34,34);stroke:black;stroke-width:1px;"/>
        <path d="M325.732,730.984C325.732,730.984 309.737,765.145 311.165,783.138C314.92,830.477 348.263,1015.02 348.263,1015.02L362.038,1018.33C343.165,923.078 325.715,827.717 325.732,730.984Z" style="fill:rgb(34,34,34);stroke:black;stroke-width:1px;"/>
    </g>
    <g transform="matrix(0.922213,0,0,0.922213,43.0286,-28.6779)">
        <g transform="matrix(1.08435,0,0,1.08435,-46.6579,31.0969)">
            <path d="M318.788,687.415C318.788,687.415 321.379,721.482 323.18,738.467C326.186,766.822 322.397,823.905 336.825,857.541C351.253,891.177 376.67,928.033 409.748,940.282C442.825,952.532 497.953,949.772 535.29,931.036C572.626,912.3 620.977,858.023 633.766,827.868C641.066,810.656 642.488,790.798 643.423,766.926C643.752,758.503 638.818,747.284 636.322,737.31C631.467,717.906 639.373,684.637 639.373,684.637L546.626,757.205L493.946,772.008L432.993,760.392L378.75,723.039L334.976,677.065L318.788,687.415Z" style="fill:rgb(244,205,199);stroke:black;stroke-width:1px;"/>
        </g>
        <path d="M314.148,159.992L245.165,301.295L242.402,420.102L235.291,514.283L265.547,641.092L333.058,697.831L406.344,622.884L519.376,621.993C519.376,621.993 595.478,672.239 594.576,678.475C593.674,684.71 646.328,689.3 644.399,694.252C642.47,699.204 707.936,595.39 707.936,595.39L696.714,427.153L704.154,314.883L665.427,210.39L612.535,152.745L545.794,135.367L433.521,134.854L314.148,159.992Z" style="fill:rgb(244,205,199);stroke:black;stroke-width:1.08px;"/>
        <path d="M237.426,434.985L248.885,427.902C248.885,427.902 246.82,344.585 257.099,307.275C267.377,269.964 293.545,227.64 310.556,204.036C322.627,187.287 338.58,167.241 359.165,165.652C437.583,159.598 530.09,223.695 547.279,240.044L516.334,176.132L572.344,220.858L556.582,167.482L600.032,205.597L599.784,178.567C599.784,178.567 632.933,207.294 643.839,225.88C666.549,264.584 702.434,353.301 689.274,419.802L710.379,424.491C710.379,424.491 713.409,398.046 714.792,384.809C716.191,371.428 718.683,357.803 718.77,344.204C718.867,328.991 719.634,309.918 715.375,293.535C709.361,270.405 696.935,232.594 682.689,205.418C668.501,178.357 629.893,130.484 629.893,130.484L658,145.075L624.645,111.989L659.523,123.301L620.405,89.544L651.763,87.231L598.827,81.606L620.207,66.161L557.675,68.393L588.415,57.192L516.798,66.959L530.812,53.201L439.903,70.188L442.515,53.911L408.08,81.958L404.876,61.434L327.865,122.081L323.45,99.658L272.623,178.53L240.27,180.911L261.406,197.274L236.682,212.902L248.618,215.433C248.618,215.433 226.533,250.54 221.707,270.345C216.481,291.795 211.529,316.146 217.257,344.137C221.117,362.997 237.426,434.985 237.426,434.985Z" style="fill:rgb(185,154,129);stroke:black;stroke-width:1.08px;"/>
        <g transform="matrix(1,0,0,1,0.625778,-4.97193)">
            <path d="M237.015,455.353C237.015,455.353 221.089,436.521 216.262,435.68C211.434,434.839 208.276,444.721 208.051,450.308C207.744,457.909 213.234,470.809 214.422,481.283C216.205,497.001 217.551,526.4 218.751,544.619C219.761,559.942 219.886,576.964 221.626,590.599C223.171,602.709 225.79,620.128 229.189,626.433C231.243,630.243 242.019,628.43 242.019,628.43L237.015,455.353Z" style="fill:rgb(244,205,199);stroke:black;stroke-width:1.08px;"/>
        </g>
        <g transform="matrix(-0.909325,0,0,1,920.672,2.89531)">
            <path d="M237.015,455.353C237.015,455.353 221.089,436.521 216.262,435.68C211.434,434.839 208.276,444.721 208.051,450.308C207.744,457.909 213.234,470.809 214.422,481.283C216.205,497.001 217.551,526.4 218.751,544.619C219.761,559.942 219.886,576.964 221.626,590.599C223.171,602.709 225.79,620.128 229.189,626.433C231.243,630.243 242.019,628.43 242.019,628.43L237.015,455.353Z" style="fill:rgb(244,205,199);stroke:black;stroke-width:1.13px;"/>
        </g>
        <path d="M705.321,448.721C705.321,448.721 710.298,563.758 703.365,612.615C697.033,657.232 683.437,703.752 663.72,741.863C644.302,779.396 615.863,817.549 585.06,841.283C554.819,864.583 514.895,884.268 478.901,884.264C442.907,884.26 401.089,864.096 369.094,841.257C335.194,817.057 297.55,776.598 275.497,739.066C253.721,702.006 242.358,658.685 236.775,616.065C230.317,566.757 236.749,443.221 236.749,443.221L248.363,452.995C248.363,452.995 235.789,546.455 252.973,579.983C269.015,611.285 309.739,667.378 324.127,665.969C338.598,664.552 342.26,608.032 368.193,598.85C394.319,589.6 423.364,583.971 440.228,587.088C450.914,589.064 463.286,602.175 474.137,602.4C484.988,602.625 495.63,588.567 505.334,588.439C526.525,588.161 559.053,592.434 575.853,605.575C595.158,620.677 609.305,667.397 627.277,663.013C639.246,660.094 668.588,625.031 686.707,599.955C707.715,570.881 694.331,458.504 694.331,458.504L705.321,448.721Z" style="fill:rgb(149,126,107);stroke:black;stroke-width:1.08px;"/>
        <path d="M365.371,652.929C384.038,642.884 441.625,638.29 476.583,639.198C510.034,640.067 555.489,647.816 575.12,658.378C593.222,668.117 588.717,691.059 580.329,704.137C567.244,724.537 524.5,773.061 507.058,768.196C503.011,767.067 495.792,746.011 497.663,741.542C498.846,738.717 544.769,721.187 541.864,720.343C541.864,720.343 495.249,717.341 472.351,716.562C449.737,715.794 404.476,715.672 404.476,715.672C410.416,721.947 437.138,740.798 436.438,744.119C433.984,755.774 429.999,763.254 427.098,765.376C411.767,776.588 373.49,725.882 364.578,699.468C359.714,685.051 351.708,660.281 365.371,652.929Z" style="fill:rgb(244,205,199);stroke:black;stroke-width:1.08px;"/>
        <path d="M713.19,450.481C713.19,450.481 699.354,459.501 695.137,466.301C686.151,480.791 686.54,516.623 659.271,537.42C633.323,557.209 570.547,560.936 536.603,544.207C504.019,528.147 502.348,466.886 491.527,454.333C483.732,445.289 468.624,444.124 460.496,455.446C449.373,470.941 441.186,527.815 411.097,543.155C380.689,558.657 309.039,552.497 283.791,533.956C261.525,517.605 258.223,473.855 250.105,459.725C247.058,454.42 235.087,449.175 235.087,449.175L233.845,424.491C233.845,424.491 279.326,415.387 283.236,414.599C308.816,409.44 381.576,399.388 449.262,422.154C461.433,426.247 487.396,426.786 497.771,423.114C542.779,407.187 631.231,404.88 684.953,419.308C699.755,423.283 715.355,426.594 715.355,426.594L713.19,450.481Z" style="fill:rgb(34,34,34);stroke:black;stroke-width:1.08px;"/>
        <path d="M271.626,428.492C252.117,443.62 270.971,508.397 285.125,524.815C305.291,548.205 391.02,552.801 414.665,534.524C437.413,516.941 454.049,447.48 429.636,430.607C393.014,405.296 294.349,410.87 271.626,428.492Z" style="fill:rgb(244,205,199);stroke:black;stroke-width:1.08px;"/>
        <path d="M522.205,429.371C547.727,411.495 654.183,413.539 675.617,430.868C697.656,448.686 682.299,505.014 661.943,526.264C637.192,552.104 554.075,554.839 531.264,532.539C510.998,512.727 498.101,446.253 522.205,429.371Z" style="fill:rgb(244,205,199);stroke:black;stroke-width:1.08px;"/>
    </g>
</svg>
